<svg aria-hidden="true" width="0" height="0" style="position:absolute"><symbol viewBox="0 0 40 40" id="b9c3e49d5a0974d6efda0833f8eb42af" xmlns="http://www.w3.org/2000/svg"><path fill-rule="evenodd" clip-rule="evenodd" d="M20 40c11.046 0 20-8.954 20-20S31.046 0 20 0 0 8.954 0 20s8.954 20 20 20zm12.973-12.834a10.397 10.397 0 01-7.66 2.82h-5.156L18.96 26.39h-6.119l-1.224 3.594H6l7.231-20.78h5.312l.75 2.161A10.296 10.296 0 0125.863 9a10.35 10.35 0 017.324 3.023c.561.567.481 1.188-.16 1.7l-2.112 1.674c-.588.486-1.096.405-1.684-.08a5.214 5.214 0 00-3.369-1.216c-1.995 0-3.744 1.119-4.663 2.765l2.636 7.604c.626.259 1.31.401 2.027.401a5.21 5.21 0 003.262-1.133c.614-.46 1.122-.54 1.71-.054l2.059 1.754c.588.513.668 1.16.08 1.728zm-18.852-5.38l1.753-5.758 1.918 5.757h-3.67z"/><path fill-rule="evenodd" clip-rule="evenodd" d="M25.862 30c2.647 0 5.186-1.026 7.111-2.834.588-.567.508-1.215-.08-1.728l-2.058-1.754c-.589-.486-1.097-.405-1.711.054a5.21 5.21 0 01-3.262 1.133 5.297 5.297 0 01-2.027-.4l1.912 5.514h-.434c.182.01.365.015.55.015zm-6.57-18.634A10.296 10.296 0 0125.863 9a10.35 10.35 0 017.325 3.023c.561.567.481 1.188-.16 1.7l-2.112 1.674c-.588.486-1.096.405-1.684-.08a5.215 5.215 0 00-3.369-1.216c-1.995 0-3.744 1.119-4.663 2.765l-1.906-5.5z" fill-opacity=".5"/></symbol></svg>