<svg aria-hidden="true" width="0" height="0" style="position:absolute"><symbol viewBox="0 0 40 40" id="c94ddebc744faf5fbdadb55131896381" xmlns="http://www.w3.org/2000/svg"><path fill-rule="evenodd" clip-rule="evenodd" d="M40 20c0 11.046-8.954 20-20 20S0 31.046 0 20 8.954 0 20 0s20 8.954 20 20zm-14.697-9.723v14.36h7.435c.813 0 1.262.454 1.262 1.277v2.81c0 .822-.449 1.276-1.262 1.276l-6.74-.007L26 30h-5.662l-1.211-3.632H12.93L11.69 30H6l7.324-21h5.38L20 12.73v-2.453C20 9.454 20.449 9 21.263 9h2.777c.814 0 1.263.454 1.263 1.277zM16 15.896l-1.775 5.818h3.719L16 15.896z"/><path fill-rule="evenodd" clip-rule="evenodd" d="M25.998 29.993L20 12.73v-2.453C20 9.454 20.449 9 21.263 9h2.777c.814 0 1.263.454 1.263 1.277v14.36h7.435c.813 0 1.262.454 1.262 1.277v2.81c0 .822-.449 1.276-1.262 1.276l-6.74-.007z" fill-opacity=".5"/></symbol></svg>