<svg aria-hidden="true" width="0" height="0" style="position:absolute"><symbol viewBox="0 0 40 40" id="ebe1b368212413486717ed4e1b776dc0" xmlns="http://www.w3.org/2000/svg"><path fill-rule="evenodd" clip-rule="evenodd" d="M20 40c11.046 0 20-8.954 20-20S31.046 0 20 0 0 8.954 0 20s8.954 20 20 20zm7.31-29.536l2.267 6.954h-7.318l-2.266-6.954h7.318zm-1.403 18.212a10.075 10.075 0 003.67-11.258l-5.925 4.304 2.255 6.954zm-11.824-.003l-.005.003 5.915 4.304 5.914-4.304-5.914-4.303-5.901 4.293 2.252-6.944-5.915-4.304h7.318l2.246-6.954h-7.308l-2.256 6.954a10.06 10.06 0 003.654 11.255z"/></symbol></svg>