<svg aria-hidden="true" width="0" height="0" style="position:absolute"><symbol viewBox="0 0 40 40" id="a259227de3cb4f2036d0f7930e02a562" xmlns="http://www.w3.org/2000/svg"><path fill-rule="evenodd" clip-rule="evenodd" d="M20 40c11.046 0 20-8.954 20-20S31.046 0 20 0 0 8.954 0 20s8.954 20 20 20zm4.858-10.085L18.406 14.48l-4.218 10.084H14.1l.084.085h8.462l-7.026 4.398c-.343.204-1.645.952-2.559.952-.589 0-.895-.224-1.189-.746l-2.684-5.028c-.185-.36-.188-.48-.188-.74h.003A1.142 1.142 0 019 23.402c0-.3.078-.49.195-.772.027-.063.054-.13.084-.205l5.318-12.827.057-.112.073-.116.153-.15.16-.087a.932.932 0 00-.487.466c.074-.203.3-.598.954-.598H21.3c.534 0 .79.318.907.608l8.488 20.307h-5.837z"/></symbol></svg>