<svg aria-hidden="true" width="0" height="0" style="position:absolute"><symbol viewBox="0 0 40 40" id="e17a4ae825a723ba1b935cea0908e3f4" xmlns="http://www.w3.org/2000/svg"><path fill-rule="evenodd" clip-rule="evenodd" d="M20 40c11.046 0 20-8.954 20-20S31.046 0 20 0 0 8.954 0 20s8.954 20 20 20zM9 12.495l3.582 17.548 4.972-1.015-1.469-7.195 6.142-1.253-.729-3.568-6.141 1.253-.621-3.041 7.253-1.48L21.225 10 9 12.495zM21.968 24.09l5.927-12.458 4.288 2.04-5.926 12.458-4.289-2.04zm-2.477 5.207l1.651-3.472 4.289 2.04-1.652 3.473-4.288-2.04z"/></symbol></svg>