<svg aria-hidden="true" width="0" height="0" style="position:absolute"><symbol viewBox="0 0 40 40" id="fd5db983944af28fe5ff47ac9e2758e4" xmlns="http://www.w3.org/2000/svg"><path fill-rule="evenodd" clip-rule="evenodd" d="M20 40c11.046 0 20-8.954 20-20S31.046 0 20 0 0 8.954 0 20s8.954 20 20 20zM9.634 27.381c.752.915 1.43 1.484 1.898 1.592.16.037.17.037.32-.004a.609.609 0 00.462-.572c0-.264-.166-.494-.831-1.156-.758-.755-1.138-1.224-1.59-1.965a9.123 9.123 0 01-.999-2.256c-.278-.932-.404-1.77-.437-2.908-.062-2.135.373-3.853 1.388-5.486.448-.72.851-1.206 1.727-2.08.626-.625.76-.824.731-1.078-.015-.135-.044-.184-.166-.289-.3-.258-.614-.232-1.112.094-.352.23-1.087.95-1.53 1.499-1.447 1.795-2.236 3.671-2.46 5.85-.047.462-.047 1.725 0 2.224.244 2.593 1.073 4.677 2.599 6.535zm19.04 1.162c.028.147.281.41.423.44.14.028.388-.008.562-.082.662-.283 1.907-1.62 2.723-2.924a10.804 10.804 0 001.593-6.424c-.182-2.652-.94-4.74-2.408-6.639-.73-.943-1.359-1.552-1.844-1.785-.4-.193-.657-.17-.881.075-.164.18-.206.336-.147.547.06.215.235.431.829 1.023.884.88 1.408 1.588 1.914 2.586.53 1.042.835 2.033 1 3.245.08.578.109 2.121.052 2.72-.184 1.942-.873 3.605-2.113 5.1-.17.204-.583.646-.92.983-.683.684-.83.896-.783 1.135zm-14.767-1.82c-.095.386.135.77.531.885.055.016 3.02.027 6.59.023l6.49-.005.152-.085a.74.74 0 00.368-.809.8.8 0 00-.547-.55c-.242-.06-12.793-.06-13.036 0a.822.822 0 00-.548.542zm2.754-4.304c.513.991 1.516 1.817 2.721 2.24.18.064.355.116.391.117.123.003.206-.066.206-.172 0-.091-.02-.108-.208-.176a1.831 1.831 0 01-.921-.71c-.32-.454-.456-.883-.487-1.53-.018-.386-.012-.472.055-.682.143-.455.374-.735 1.091-1.323.545-.447.705-.623.846-.935.229-.503.171-1.074-.138-1.352a.263.263 0 01-.093-.184c0-.09.01-.098.139-.098.297 0 .85.47 1.09.925.122.234.126.253.124.628a10.16 10.16 0 01-.032.703c-.052.563.12.905.51 1.014.48.135 1.025-.135 1.025-.508 0-.071-.033-.246-.073-.388-.116-.408-.126-.487-.064-.487.114 0 .365.223.536.477.414.612.537 1.573.29 2.262-.16.447-.437.842-.977 1.397-.36.37-.394.455-.232.579.131.1.224.091.49-.043.592-.298 1.405-1.014 1.795-1.58.35-.507.595-1.1.717-1.73.096-.498.087-1.451-.019-2.026-.202-1.097-.623-1.886-1.469-2.754-.338-.347-.826-.732-.976-.77-.29-.075-.306.069-.058.546.303.583.367.936.217 1.194-.094.162-.233.244-.457.268-.421.047-.63-.34-.84-1.56-.19-1.099-.302-1.483-.582-1.985-.362-.652-.919-1.148-1.674-1.494-.668-.306-1.394-.412-1.66-.244-.168.107-.12.267.117.386.146.072.504.462.663.721.224.365.296.644.29 1.114-.005.492-.101.84-.392 1.426-.218.44-.345.65-1.087 1.797-.998 1.54-1.325 2.31-1.325 3.12 0 .598.165 1.265.45 1.817z"/></symbol></svg>