<svg aria-hidden="true" width="0" height="0" style="position:absolute"><symbol viewBox="0 0 40 40" id="dd7a8f06e3f421f060fb4da1dee4c1f8" xmlns="http://www.w3.org/2000/svg"><path fill-rule="evenodd" clip-rule="evenodd" d="M20 40c11.045 0 20-8.954 20-20S31.044 0 20 0C8.953 0 0 8.954 0 20s8.954 20 20 20zm7.305-14.479c-4.694.892-8.999-2.707-8.999-7.446a7.577 7.577 0 013.837-6.594c.368-.207.272-.761-.142-.842-5.963-1.099-11.443 3.469-11.443 9.518 0 5.344 4.325 9.68 9.669 9.68a9.638 9.638 0 007.511-3.585c.268-.328-.025-.812-.433-.73zm1.362-8.854L27.5 19l-1.167-2.333L24 15.5l2.333-1.167L27.5 12l1.167 2.333L31 15.5l-2.333 1.167z"/></symbol></svg>