<svg aria-hidden="true" width="0" height="0" style="position:absolute"><symbol viewBox="0 0 40 40" id="0d82d802445002d69132389c6263c8d1" xmlns="http://www.w3.org/2000/svg"><path fill-rule="evenodd" clip-rule="evenodd" d="M40 20c0 11.046-8.954 20-20 20S0 31.046 0 20 8.954 0 20 0s20 8.954 20 20zm-10-5.333l-9.495-5.37L11 14.667v10.666l9.505 5.37L30 25.333V14.667zM20.505 33L32 26.5v-13L20.505 7 9 13.5v13L20.505 33zm3.74-17.1h-2.353a.338.338 0 00-.247.104.338.338 0 00-.104.247V19.8l-2.197-3.601c-.112-.2-.29-.299-.533-.299h-2.053a.338.338 0 00-.247.104.338.338 0 00-.104.247v8.398c0 .095.034.178.104.247.069.07.151.104.247.104h2.352a.337.337 0 00.248-.104.337.337 0 00.104-.247v-3.263l2.197 3.315c.13.2.307.299.533.299h2.053a.337.337 0 00.247-.104.337.337 0 00.104-.247v-8.398a.337.337 0 00-.104-.247.337.337 0 00-.247-.104z"/></symbol></svg>