<svg aria-hidden="true" width="0" height="0" style="position:absolute"><symbol viewBox="0 0 40 40" id="91dd22c7b13bdbda48a1224dc8f5a526" xmlns="http://www.w3.org/2000/svg"><path fill-rule="evenodd" clip-rule="evenodd" d="M20 40c11.046 0 20-8.954 20-20S31.046 0 20 0 0 8.954 0 20s8.954 20 20 20zm2.352-25.511H17.8c-.724 0-1.311.588-1.311 1.309v4.938H12v-4.938A5.797 5.797 0 0117.8 10h4.552v4.489zm-3.705 11.593h4.555c.72 0 1.31-.587 1.31-1.31v-4.937H29v4.937a5.8 5.8 0 01-5.798 5.8h-4.555v-4.49z"/></symbol></svg>