<svg aria-hidden="true" width="0" height="0" style="position:absolute"><symbol viewBox="0 0 40 40" id="1c3fe6cc09dae777600ba93e9f1c4518" xmlns="http://www.w3.org/2000/svg"><path fill-rule="evenodd" clip-rule="evenodd" d="M20 40c11.046 0 20-8.954 20-20S31.046 0 20 0 0 8.954 0 20c0 6.455 3.058 12.196 7.804 15.852 6.835-.732 9.333-6.116 9.333-6.116l5.377 1.755s-.883 5.287-4.248 8.435c.572.049 1.15.074 1.734.074zM7.611 11.01c1.946.376 3.05 1.529 3.385 3.386-.034-1.923 1.11-3.043 3.386-3.387-2.052-.216-3.142-1.385-3.386-3.386-.235 1.932-1.284 3.135-3.385 3.386zm17.204 14.415l-.738 1.97-6.062-1.77.613-2.112-4.631-1.84c1.476-1.803 2.953-2.69 5.244-3.815-.204-3.542 2.655-6.08 6.061-8.58 2.707 3.322 3.906 6.271 2.055 10.41 1.533 1.66 2.19 4.33 2.166 6.823l-4.708-1.086zm1.053-9.393a1.762 1.762 0 11-3.524 0 1.762 1.762 0 013.524 0z"/></symbol></svg>