<svg viewBox="0 0 40 40" xmlns="http://www.w3.org/2000/svg">
<path fill-rule="evenodd" clip-rule="evenodd" d="M20 40C31.0457 40 40 31.0457 40 20C40 8.9543 31.0457 0 20 0C8.9543 0 0 8.9543 0 20C0 31.0457 8.9543 40 20 40ZM32.9732 27.1659C31.0483 28.9743 28.5087 30 25.8621 30C25.6779 30 25.4947 29.9951 25.3128 29.9854H20.1567L18.9607 26.3909H12.842L11.6182 29.9854H6L13.2313 9.20447H18.5434L19.2928 11.3662C21.0868 9.88695 23.376 9 25.8621 9C28.6156 9 31.2355 10.0796 33.1871 12.0232C33.7484 12.5899 33.6681 13.2107 33.0266 13.7236L30.9146 15.3971C30.3266 15.8829 29.8187 15.8019 29.2305 15.3162C28.2948 14.5333 27.1186 14.1015 25.8621 14.1015C23.8669 14.1015 22.1178 15.2198 21.1994 16.8663L23.8352 24.4702C24.4611 24.7288 25.1457 24.8714 25.8621 24.8714C27.065 24.8714 28.2147 24.4665 29.1236 23.7377C29.7384 23.2789 30.2464 23.1979 30.8345 23.6838L32.8929 25.4383C33.4811 25.9512 33.5614 26.5989 32.9732 27.1659ZM14.1213 21.7854L15.8736 16.0285L17.7925 21.7854H14.1213Z"/>
<path fill-rule="evenodd" clip-rule="evenodd" d="M25.8622 30C28.5087 30 31.0483 28.9743 32.9732 27.1659C33.5614 26.5989 33.4811 25.9512 32.8929 25.4383L30.8346 23.6838C30.2464 23.1979 29.7385 23.2789 29.1236 23.7377C28.2147 24.4665 27.065 24.8714 25.8622 24.8714C25.1458 24.8714 24.4611 24.7288 23.8352 24.4702L25.7471 29.9854H25.3128C25.4948 29.9951 25.6779 30 25.8622 30ZM19.2928 11.3662C21.0868 9.88695 23.376 9 25.8622 9C28.6157 9 31.2355 10.0796 33.1871 12.0232C33.7484 12.5899 33.6682 13.2107 33.0266 13.7236L30.9147 15.3971C30.3267 15.8829 29.8187 15.8019 29.2306 15.3162C28.2948 14.5333 27.1186 14.1015 25.8622 14.1015C23.8669 14.1015 22.1178 15.2198 21.1994 16.8663L19.2928 11.3662Z" fill-opacity="0.5"/>
</svg>
