<svg viewBox="0 0 40 40" xmlns="http://www.w3.org/2000/svg">
<path fill-rule="evenodd" clip-rule="evenodd" d="M40 20C40 31.0457 31.0457 40 20 40C8.9543 40 0 31.0457 0 20C0 8.9543 8.9543 0 20 0C31.0457 0 40 8.9543 40 20ZM25.3026 10.2771V24.6365H32.7376C33.5512 24.6365 34 25.0907 34 25.9136V28.7231C34 29.546 33.5512 30 32.7376 30L25.9975 29.9928L26 30H20.3381L19.1267 26.3676H12.9296L11.6902 30H6L13.3239 9H18.7041L20 12.7299V10.2771C20 9.45416 20.449 9 21.2626 9H24.0402C24.8538 9 25.3026 9.45416 25.3026 10.2771ZM15.9999 15.8959L14.2253 21.7136H17.9436L15.9999 15.8959Z"/>
<path fill-rule="evenodd" clip-rule="evenodd" d="M25.9976 29.9928L20 12.73V10.2771C20 9.45416 20.449 9 21.2626 9H24.0402C24.8538 9 25.3026 9.45416 25.3026 10.2771V24.6365H32.7377C33.5511 24.6365 34 25.0907 34 25.9136V28.7231C34 29.5461 33.5511 30 32.7377 30L25.9976 29.9928Z" fill-opacity="0.5"/>
</svg>
