<svg viewBox="0 0 40 40" xmlns="http://www.w3.org/2000/svg">
<path fill-rule="evenodd" clip-rule="evenodd" d="M20 40C31.0457 40 40 31.0457 40 20C40 8.9543 31.0457 0 20 0C8.9543 0 0 8.9543 0 20C0 31.0457 8.9543 40 20 40ZM27.3106 10.4636L29.5767 17.4181H22.2587L19.9926 10.4636H27.3106ZM25.9073 28.6764C29.4416 26.1191 30.9177 21.5659 29.5767 17.4181L23.6516 21.7219L25.9073 28.6764ZM14.083 28.6726L14.0778 28.6764L19.9926 32.9801L25.9073 28.6764L19.9926 24.3727L14.0915 28.6665L16.344 21.7219L10.4292 17.4181H17.7473L19.9926 10.4636H12.6849L10.4292 17.4181C9.07854 21.5639 10.5525 26.1043 14.083 28.6726Z"/>
</svg>
