<svg viewBox="0 0 40 40" xmlns="http://www.w3.org/2000/svg">
<path fill-rule="evenodd" clip-rule="evenodd" d="M20 40C31.0457 40 40 31.0457 40 20C40 8.9543 31.0457 0 20 0C8.9543 0 0 8.9543 0 20C0 31.0457 8.9543 40 20 40ZM24.8582 29.9148L18.406 14.4806L14.1878 24.5647H14.0996L14.1839 24.6499H22.6456L15.6198 29.0477C15.2774 29.2524 13.9749 30 13.061 30C12.472 30 12.1659 29.7755 11.872 29.254L9.18792 24.2263C9.00295 23.866 9 23.746 9 23.4864L9.00318 23.4866C9.00105 23.4582 9 23.4297 9 23.4012C9 23.1005 9.07833 22.9116 9.19543 22.6292L9.19546 22.6291C9.22152 22.5663 9.2495 22.4988 9.27897 22.4244L14.5966 9.59737L14.6537 9.48481L14.7273 9.36932L14.8804 9.2186L15.0406 9.13208C14.7948 9.23059 14.649 9.41003 14.5527 9.5982C14.6273 9.39491 14.853 9 15.507 9H21.3C21.8338 9 22.0899 9.31762 22.2067 9.60843L30.6946 29.9148H24.8582Z"/>
</svg>
