<svg viewBox="0 0 40 40" xmlns="http://www.w3.org/2000/svg">
<path fill-rule="evenodd" clip-rule="evenodd" d="M20 40C31.0457 40 40 31.0457 40 20C40 8.9543 31.0457 0 20 0C8.9543 0 0 8.9543 0 20C0 31.0457 8.9543 40 20 40ZM9 12.4953L12.5818 30.0427L17.5536 29.0278L16.085 21.8334L22.2266 20.5798L21.4983 17.0118L15.3567 18.2655L14.7359 15.2239L21.9888 13.7434L21.2247 10L9 12.4953ZM21.9681 24.0895L27.8947 11.6318L32.1834 13.6721L26.2568 26.1298L21.9681 24.0895ZM19.4905 29.2972L21.1422 25.8254L25.4309 27.8657L23.7793 31.3375L19.4905 29.2972Z"/>
</svg>
