<svg viewBox="0 0 40 40" xmlns="http://www.w3.org/2000/svg">
<path fill-rule="evenodd" clip-rule="evenodd" d="M20 40C31.0457 40 40 31.0457 40 20C40 8.9543 31.0457 0 20 0C8.9543 0 0 8.9543 0 20C0 31.0457 8.9543 40 20 40ZM9.63377 27.381C10.3856 28.2961 11.0636 28.8647 11.5321 28.9728C11.692 29.0097 11.7022 29.0096 11.8516 28.9694C12.1221 28.8968 12.3137 28.6595 12.3137 28.3972C12.3137 28.1334 12.1484 27.9034 11.483 27.2412C10.7245 26.4863 10.3452 26.0173 9.89387 25.2759C9.44432 24.5375 9.14413 23.8603 8.89402 23.0205C8.61633 22.088 8.49041 21.2496 8.45722 20.1123C8.39491 17.9774 8.82958 16.2594 9.84535 14.6258C10.2927 13.9064 10.6965 13.42 11.5718 12.5461C12.1982 11.9208 12.3329 11.7223 12.3034 11.4683C12.2876 11.3334 12.2594 11.2845 12.1368 11.1793C11.8361 10.9212 11.5227 10.9475 11.0249 11.2725C10.6731 11.5022 9.93846 12.2222 9.49521 12.7719C8.04777 14.5668 7.25892 16.4432 7.03578 18.622C6.98845 19.0841 6.98798 20.347 7.03495 20.8461C7.27898 23.4395 8.10764 25.5232 9.63377 27.381ZM28.6736 28.5426C28.7021 28.6904 28.9554 28.9536 29.097 28.9827C29.2368 29.0114 29.4854 28.9754 29.6586 28.9013C30.3214 28.6179 31.5661 27.2816 32.382 25.9775C33.564 24.0882 34.1296 21.8068 33.975 19.5531C33.7929 16.9006 33.0355 14.8124 31.567 12.9143C30.837 11.9708 30.2082 11.362 29.723 11.1288C29.3221 10.9362 29.066 10.9582 28.8417 11.2044C28.6783 11.3839 28.6362 11.5403 28.6947 11.751C28.7544 11.9659 28.9296 12.182 29.5236 12.7737C30.4083 13.6548 30.9321 14.3622 31.4384 15.3596C31.9675 16.402 32.273 17.3933 32.4385 18.605C32.5175 19.1835 32.5468 20.7262 32.4902 21.3249C32.3064 23.2671 31.6174 24.93 30.3774 26.4244C30.2079 26.6286 29.7941 27.0712 29.4577 27.408C28.7742 28.0922 28.6276 28.3044 28.6736 28.5426ZM13.9073 26.7235C13.8116 27.1089 14.0416 27.4922 14.4384 27.6084C14.4928 27.6244 17.4578 27.6348 21.0274 27.6315L27.5174 27.6256L27.6705 27.5409C27.9599 27.3806 28.1089 27.0526 28.0378 26.7322C27.9836 26.4877 27.7397 26.2419 27.4914 26.1814C27.2488 26.1224 14.6975 26.1224 14.4549 26.1814C14.214 26.2401 13.9665 26.4851 13.9073 26.7235ZM16.6608 22.4187C17.1742 23.4102 18.177 24.2359 19.3823 24.6596C19.5612 24.7225 19.7372 24.7748 19.7733 24.7758C19.8958 24.779 19.9788 24.7096 19.9788 24.6041C19.9788 24.513 19.9582 24.4955 19.7709 24.4279C19.3815 24.2872 19.0948 24.0661 18.8499 23.7176C18.5309 23.2636 18.3945 22.8347 18.3632 22.1875C18.3445 21.802 18.3513 21.7164 18.4176 21.506C18.5609 21.0513 18.792 20.7712 19.509 20.1829C20.054 19.7358 20.2136 19.5595 20.3551 19.2482C20.584 18.7447 20.526 18.1742 20.2174 17.8958C20.1591 17.8433 20.1235 17.7737 20.1235 17.7124C20.1235 17.6211 20.134 17.6136 20.2625 17.6136C20.5604 17.6136 21.1136 18.0833 21.3528 18.5392C21.4755 18.7731 21.4793 18.7921 21.4766 19.1668C21.4751 19.3793 21.4609 19.6955 21.4449 19.8696C21.3932 20.4328 21.5652 20.7746 21.9551 20.8842C22.435 21.019 22.9798 20.7486 22.9798 20.3756C22.9798 20.305 22.9468 20.1304 22.9065 19.9876C22.7913 19.5799 22.781 19.5007 22.8431 19.5007C22.9566 19.5007 23.2077 19.7244 23.379 19.978C23.7926 20.5904 23.9156 21.5513 23.6686 22.2404C23.5084 22.6871 23.2324 23.0817 22.6918 23.6367C22.332 24.0061 22.2977 24.0921 22.4604 24.2158C22.5913 24.3153 22.684 24.3072 22.9509 24.1727C23.5421 23.8749 24.3552 23.1589 24.745 22.5931C25.0946 22.0856 25.3405 21.4923 25.4619 20.8636C25.5581 20.3653 25.5492 19.4118 25.4431 18.8367C25.2407 17.7404 24.8199 16.9514 23.9744 16.083C23.6364 15.7359 23.1483 15.3505 22.9979 15.3121C22.7075 15.2378 22.6922 15.3819 22.9398 15.8588C23.2428 16.4425 23.307 16.7952 23.1572 17.0529C23.0631 17.2147 22.9237 17.2966 22.7003 17.3214C22.2788 17.3682 22.0703 16.9812 21.86 15.7615C21.6705 14.6624 21.5578 14.2777 21.2784 13.7758C20.9159 13.1245 20.3592 12.6279 19.6039 12.2821C18.9363 11.9765 18.2097 11.8697 17.9438 12.0381C17.7756 12.1446 17.8247 12.3053 18.0615 12.4237C18.2068 12.4963 18.5646 12.8861 18.7236 13.1451C18.9476 13.5099 19.0205 13.7888 19.0147 14.2589C19.0086 14.7508 18.9128 15.0989 18.6222 15.6852C18.4038 16.1257 18.2772 16.3347 17.5345 17.4817C16.5374 19.0216 16.2101 19.7925 16.2099 20.6015C16.2098 21.1999 16.3754 21.8675 16.6608 22.4187Z"/>
</svg>
