<svg viewBox="0 0 40 40" xmlns="http://www.w3.org/2000/svg">
<path fill-rule="evenodd" clip-rule="evenodd" d="M19.9993 40C31.045 40 39.9993 31.0457 39.9993 20C39.9993 8.95434 31.045 3.05176e-05 19.9993 3.05176e-05C8.95357 3.05176e-05 -0.000732422 8.95434 -0.000732422 20C-0.000732422 31.0457 8.95357 40 19.9993 40ZM27.3048 25.5211C22.6114 26.4134 18.3061 22.8139 18.3061 18.0751C18.3061 15.3427 19.7681 12.8321 22.1426 11.4811C22.5106 11.2744 22.4148 10.7198 22.0014 10.6392C16.0375 9.54017 10.5577 14.1076 10.5577 20.1571C10.5577 25.5009 14.8831 29.8364 20.2269 29.8364C23.2113 29.8364 25.9336 28.4803 27.7384 26.2521C28.0056 25.9244 27.7132 25.4404 27.3048 25.5211ZM28.6667 16.6667L27.5 19L26.3334 16.6667L24 15.5L26.3334 14.3333L27.5 12L28.6667 14.3333L31 15.5L28.6667 16.6667Z"/>
</svg>
