<svg viewBox="0 0 40 40" xmlns="http://www.w3.org/2000/svg">
<path fill-rule="evenodd" clip-rule="evenodd" d="M40 20C40 31.0457 31.0457 40 20 40C8.9543 40 0 31.0457 0 20C0 8.9543 8.9543 0 20 0C31.0457 0 40 8.9543 40 20ZM30 14.6667L20.5047 9.29736L11 14.6672V25.3328L20.5047 30.7026L30 25.3333V14.6667ZM20.5052 33L32 26.5V13.5L20.5052 7L9 13.5V26.5L20.5052 33ZM24.2455 15.9H21.8925C21.7972 15.9 21.7149 15.9347 21.6455 16.004C21.5762 16.0733 21.5415 16.1557 21.5415 16.251V19.8L19.3445 16.199C19.2319 15.9997 19.0542 15.9 18.8115 15.9H16.7575C16.6622 15.9 16.5799 15.9347 16.5105 16.004C16.4412 16.0733 16.4065 16.1557 16.4065 16.251V24.649C16.4065 24.7443 16.4412 24.8267 16.5105 24.896C16.5799 24.9653 16.6622 25 16.7575 25H19.1105C19.2059 25 19.2882 24.9653 19.3575 24.896C19.4269 24.8267 19.4615 24.7443 19.4615 24.649V21.386L21.6585 24.701C21.7885 24.9003 21.9662 25 22.1915 25H24.2455C24.3409 25 24.4232 24.9653 24.4925 24.896C24.5619 24.8267 24.5965 24.7443 24.5965 24.649V16.251C24.5965 16.1557 24.5619 16.0733 24.4925 16.004C24.4232 15.9347 24.3409 15.9 24.2455 15.9Z"/>
</svg>
