<svg viewBox="0 0 40 40" xmlns="http://www.w3.org/2000/svg">
<path fill-rule="evenodd" clip-rule="evenodd" d="M20 40C31.0457 40 40 31.0457 40 20C40 8.9543 31.0457 0 20 0C8.9543 0 0 8.9543 0 20C0 31.0457 8.9543 40 20 40ZM22.3518 14.4889H17.8007C17.0769 14.4889 16.4897 15.0769 16.4897 15.7978V20.7365H12V15.7978C12 12.5945 14.5952 10 17.8007 10H22.3518V14.4889ZM18.6474 26.0821H23.2016C23.9223 26.0821 24.5111 25.495 24.5111 24.7717V19.8346H29V24.7717C29 27.975 26.404 30.5716 23.2016 30.5716H18.6474V26.0821Z"/>
</svg>
