<svg viewBox="0 0 40 40" xmlns="http://www.w3.org/2000/svg">
<path fill-rule="evenodd" clip-rule="evenodd" d="M20 40C31.0457 40 40 31.0457 40 20C40 8.9543 31.0457 0 20 0C8.9543 0 0 8.9543 0 20C0 26.4549 3.05791 32.1956 7.80412 35.8524C14.6388 35.1197 17.1368 29.7355 17.1368 29.7355L22.514 31.4906C22.514 31.4906 21.6311 36.7775 18.2663 39.9259C18.8377 39.975 19.4159 40 20 40ZM7.61101 11.0094C9.55687 11.3864 10.661 12.539 10.9963 14.3955C10.9617 12.4726 12.1056 11.3532 14.3815 11.0094C12.3302 10.7926 11.2397 9.62436 10.9963 7.62329C10.7606 9.55534 9.71246 10.7581 7.61101 11.0094ZM24.815 25.4252L24.0767 27.3945L18.0154 25.6246L18.6282 23.5126L13.9967 21.6738C15.4732 19.8695 16.9498 18.9833 19.2409 17.8584C19.0367 14.3162 21.8963 11.7783 25.3022 9.27733C28.0093 12.6004 29.2077 15.5494 27.3571 19.6873C28.8903 21.3489 29.5473 24.0172 29.5227 26.5108L24.815 25.4252ZM25.8685 16.0324C25.8685 17.0058 25.0796 17.7949 24.1065 17.7949C23.1333 17.7949 22.3445 17.0058 22.3445 16.0324C22.3445 15.059 23.1333 14.2699 24.1065 14.2699C25.0796 14.2699 25.8685 15.059 25.8685 16.0324Z"/>
</svg>
